<?xml version="1.0" encoding="UTF-8"?>
<svg version="1.1" xmlns="http://www.w3.org/2000/svg" width="500" height="500">
<path d="M0 0 C0.7517091 -0.00297112 1.5034182 -0.00594224 2.27790636 -0.0090034 C4.77467356 -0.01761389 7.27139239 -0.01919211 9.76817322 -0.02069092 C11.56765341 -0.02532458 13.36713262 -0.03034997 15.16661072 -0.03573608 C20.04095528 -0.04881069 24.91528609 -0.05529556 29.78964543 -0.05974674 C32.84116437 -0.06268592 35.89267963 -0.06679233 38.9441967 -0.07125092 C48.50966309 -0.08491385 58.07512098 -0.09458597 67.64059645 -0.09845281 C78.64884897 -0.10292844 89.65697701 -0.12045847 100.66519171 -0.1494534 C109.19630497 -0.17113671 117.72738338 -0.18116065 126.25852388 -0.18249393 C131.34336835 -0.18353735 136.42809561 -0.18934577 141.51291084 -0.20731354 C146.30235233 -0.22390925 151.09158995 -0.22589449 155.88105011 -0.21717453 C157.62761167 -0.21641023 159.37418472 -0.22066561 161.120718 -0.23063278 C174.65975612 -0.30329501 188.32640262 0.24062352 200.49058533 6.89044189 C201.15340515 7.23607178 201.81622498 7.58170166 202.49913025 7.93780518 C207.83276623 10.79746416 212.50920433 14.2223707 217.11558533 18.14044189 C218.10558533 18.80044189 219.09558533 19.46044189 220.11558533 20.14044189 C220.11558533 20.80044189 220.11558533 21.46044189 220.11558533 22.14044189 C220.77558533 22.14044189 221.43558533 22.14044189 222.11558533 22.14044189 C239.60310932 41.12318169 245.25790959 63.47544207 245.27671814 88.76959229 C245.28135536 90.23262657 245.28638121 91.69565967 245.29176331 93.15869141 C245.30480387 97.11158562 245.31131606 101.0644629 245.31577396 105.01737523 C245.31871875 107.49518699 245.32282615 109.97299427 245.32727814 112.45080376 C245.34093224 120.22704928 245.3506086 128.0032844 245.35448003 135.77954108 C245.35895321 144.71174754 245.37647546 153.64380041 245.40548062 162.57596022 C245.42720325 169.50967082 245.43718995 176.44333855 245.43852115 183.37708277 C245.4395618 187.50453686 245.44530973 191.63184617 245.46334076 195.75926399 C245.48000538 199.64916563 245.48188945 203.53881651 245.47320175 207.42874146 C245.47244104 208.84269833 245.47664346 210.25666975 245.48666 211.67059135 C245.63482518 233.92115305 239.9690938 257.59232094 224.11558533 274.14044189 C223.45558533 274.14044189 222.79558533 274.14044189 222.11558533 274.14044189 C222.11558533 274.80044189 222.11558533 275.46044189 222.11558533 276.14044189 C221.45558533 276.14044189 220.79558533 276.14044189 220.11558533 276.14044189 C220.11558533 276.80044189 220.11558533 277.46044189 220.11558533 278.14044189 C219.45558533 278.14044189 218.79558533 278.14044189 218.11558533 278.14044189 C218.11558533 278.80044189 218.11558533 279.46044189 218.11558533 280.14044189 C204.131875 292.18344718 187.50289492 298.30377495 169.14851379 298.28088379 C168.38793203 298.28385491 167.62735026 298.28682603 166.84372056 298.28988719 C164.31698044 298.29849911 161.79028812 298.30007602 159.26353455 298.30157471 C157.44272767 298.30620823 155.62192175 298.3112336 153.80111694 298.31661987 C148.86899013 298.3296949 143.93687689 298.3361793 139.00473547 298.34063053 C135.91771229 298.34356933 132.83069275 298.34767565 129.74367142 298.3521347 C120.06875021 298.36579707 110.39383742 298.37546975 100.71890724 298.3793366 C89.58103419 298.38381363 78.44328409 298.40135041 67.30544841 298.43033719 C58.67583782 298.45201037 50.04626168 298.46204389 41.41662419 298.46337771 C36.27200845 298.46442175 31.12750849 298.47024371 25.9829216 298.48819733 C21.13849192 298.50477566 16.29426383 298.50678652 11.44981575 298.49805832 C9.68187097 298.49729313 7.91391491 298.50156143 6.145998 298.51151657 C-18.0284451 298.63954973 -37.52886246 291.9312025 -55.20082092 274.93341064 C-63.88441467 265.89590041 -63.88441467 265.89590041 -63.88441467 261.14044189 C-64.54441467 261.14044189 -65.20441467 261.14044189 -65.88441467 261.14044189 C-66.98848932 258.83615128 -68.06651467 256.52398986 -69.13441467 254.20294189 C-69.43476624 253.5822583 -69.7351178 252.96157471 -70.04457092 252.32208252 C-75.886815 239.45671525 -77.48716049 225.92060754 -77.4019928 211.96051025 C-77.40743379 210.42732587 -77.41456736 208.89414672 -77.42323303 207.36097717 C-77.44123346 203.25346829 -77.4344974 199.14636805 -77.42171669 195.03885341 C-77.4114683 190.70621575 -77.42101458 186.37360913 -77.42726135 182.04096985 C-77.43450298 174.77124864 -77.42504151 167.50169092 -77.40589905 160.23199463 C-77.3841288 151.86861291 -77.39119685 143.50562136 -77.41320467 135.14224905 C-77.43144893 127.91535546 -77.43387346 120.68857824 -77.42344999 113.46166903 C-77.41726537 109.1655375 -77.41623877 104.86958842 -77.42959595 100.57346916 C-77.44128682 96.53233188 -77.43289197 92.49169003 -77.41001892 88.45060539 C-77.40480188 86.98183 -77.40612264 85.51301171 -77.41506958 84.0442543 C-77.51466095 66.01035866 -73.10405173 45.71609943 -61.88441467 31.14044189 C-61.22441467 31.14044189 -60.56441467 31.14044189 -59.88441467 31.14044189 C-59.61500061 30.55778564 -59.34558655 29.97512939 -59.06800842 29.37481689 C-51.38794346 14.87647643 -34.42364452 7.10276637 -19.63050842 2.15606689 C-13.11593651 0.38986387 -6.72216862 -0.00848713 0 0 Z M75.11558533 52.14044189 C73.80399764 55.91125648 73.92902625 57.62985914 75.30308533 61.39044189 C77.25878447 64.35770956 77.87190174 64.96190353 81.11558533 66.14044189 C83.54826181 66.33822047 85.98818901 66.45269481 88.42808533 66.51544189 C107.03630978 67.32644892 123.11114511 74.29225338 135.92808533 88.01544189 C146.73349342 100.63461492 152.44326367 115.03530823 152.37095642 131.60797119 C152.37457687 132.62523285 152.37819733 133.64249451 152.38192749 134.69058228 C152.3887913 136.88672174 152.39133262 139.08287816 152.38998032 141.27902794 C152.38901157 144.75506946 152.40199675 148.23080478 152.41896057 151.70680237 C152.46514211 161.58513068 152.48985694 171.46342526 152.4964447 181.34185791 C152.50145328 187.3942007 152.52566237 193.44621988 152.56177139 199.49845314 C152.57157705 201.80252962 152.5738972 204.10665055 152.5685997 206.41074181 C152.56154568 209.62788037 152.57877532 212.84404932 152.60142517 216.06109619 C152.59325272 217.012379 152.58508026 217.9636618 152.57666016 218.94377136 C152.63010556 223.2048519 152.7296879 225.51975979 155.02272034 229.207901 C157.70708305 231.68662788 158.68869861 232.09118574 162.36558533 232.51544189 C167.19037767 232.03296266 168.9062365 230.73185606 172.11558533 227.14044189 C173.06977051 222.42766821 173.24181446 217.83914829 173.24497986 213.0413208 C173.24673218 212.36844528 173.2484845 211.69556976 173.25028992 211.00230408 C173.25466662 208.79051071 173.25177919 206.5787985 173.24839783 204.36700439 C173.24907347 202.80022161 173.25004565 201.23343893 173.251297 199.66665649 C173.25276953 196.37665818 173.2506389 193.08668704 173.24595642 189.79669189 C173.24034314 185.65860045 173.24359166 181.52057443 173.24938297 177.38248539 C173.26718508 162.52849146 173.25677487 147.67788301 172.71324158 132.83184814 C172.6802597 131.85692413 172.64727783 130.88200012 172.61329651 129.87753296 C172.25378326 121.56079309 170.7978105 114.03087129 168.11558533 106.14044189 C167.72757751 104.97899658 167.3395697 103.81755127 166.93980408 102.62091064 C162.18450617 90.12247279 153.41891194 77.75508003 143.11558533 69.14044189 C142.45558533 69.14044189 141.79558533 69.14044189 141.11558533 69.14044189 C141.11558533 68.48044189 141.11558533 67.82044189 141.11558533 67.14044189 C138.97754277 65.58495588 136.85511987 64.16086381 134.61558533 62.76544189 C133.97065125 62.35914551 133.32571716 61.95284912 132.66123962 61.53424072 C118.75119577 52.85774804 104.70370006 48.10952064 88.24058533 47.76544189 C87.15173035 47.72628662 87.15173035 47.72628662 86.0408783 47.68634033 C81.10138693 47.6702993 78.52858633 48.55873742 75.11558533 52.14044189 Z M0.11558533 95.14044189 C0.11558533 95.80044189 0.11558533 96.46044189 0.11558533 97.14044189 C-0.54441467 97.14044189 -1.20441467 97.14044189 -1.88441467 97.14044189 C-1.88441467 97.80044189 -1.88441467 98.46044189 -1.88441467 99.14044189 C-3.86441467 100.13044189 -3.86441467 100.13044189 -5.88441467 101.14044189 C-5.88441467 101.80044189 -5.88441467 102.46044189 -5.88441467 103.14044189 C-6.54441467 103.14044189 -7.20441467 103.14044189 -7.88441467 103.14044189 C-9.43506523 105.17243388 -10.82859205 107.17663778 -12.19691467 109.32794189 C-12.59990784 109.96143555 -13.002901 110.5949292 -13.41810608 111.24761963 C-27.10655429 133.41210052 -28.01323931 159.35743572 -22.75941467 184.20294189 C-18.28133229 200.62257728 -7.94874524 216.8378795 6.76792908 225.74591064 C19.13983222 232.08999932 31.43149537 232.95567832 45.11558533 231.14044189 C45.41464783 231.74372314 45.71371033 232.34700439 46.02183533 232.96856689 C47.27401561 235.45503917 48.57045289 237.82274324 50.11558533 240.14044189 C50.77558533 240.14044189 51.43558533 240.14044189 52.11558533 240.14044189 C52.36308533 240.71794189 52.61058533 241.29544189 52.86558533 241.89044189 C54.41492435 244.67925213 55.49733066 246.26066931 58.11558533 248.14044189 C62.76559641 249.01123049 66.08012537 248.78760437 70.11558533 246.26544189 C72.64586508 243.57701965 73.06441202 242.66240964 73.42808533 238.95294189 C72.94000119 232.99831544 70.16375467 229.24497094 66.30308533 224.95294189 C64.11558533 222.14044189 64.11558533 222.14044189 64.22496033 220.23028564 C65.39214674 217.49149297 67.05359269 215.97484977 69.17808533 213.89044189 C78.44683086 203.85422061 82.981386 191.24387412 86.11558533 178.14044189 C86.28993103 177.5519043 86.46427673 176.9633667 86.64390564 176.35699463 C91.16498092 155.11121696 86.88514036 128.68918573 75.30308533 110.45294189 C66.51343141 98.07567413 55.54441499 88.83660741 40.40855408 85.45294189 C25.14058041 83.37212777 13.03956359 87.44105059 0.11558533 95.14044189 Z " fill="#162E4C" transform="translate(158.88441467285156,100.85955810546875)"/>
<path d="M0 0 C9.8831491 6.05741396 14.75866457 17.02695644 18.1953125 27.71875 C21.82399707 43.74039763 20.28999163 62.5039716 12.390625 76.94140625 C7.45565425 84.53628096 1.28024398 91.12863882 -7.66015625 93.55859375 C-16.76162838 95.27556596 -23.90953107 93.50869131 -32 89 C-41.00393568 82.41827336 -46.68084604 71.16382075 -48.68212891 60.37841797 C-51.21753028 41.40769587 -49.37474906 24.29056341 -39 8 C-38.34 8 -37.68 8 -37 8 C-36.773125 7.4225 -36.54625 6.845 -36.3125 6.25 C-28.80891257 -6.61329273 -11.49252393 -5.71342618 0 0 Z " fill="#172F4C" transform="translate(205,214)"/>
<path d="M0 0 C0.33 0 0.66 0 1 0 C1.02715383 1.74991334 1.04646551 3.49994945 1.0625 5.25 C1.07410156 6.22453125 1.08570312 7.1990625 1.09765625 8.203125 C1.01160865 10.66752834 0.61717812 12.63589397 0 15 C0.185625 15.66 0.37125 16.32 0.5625 17 C1 19 1 19 0.04474831 20.74139786 C-1.30557722 23.66061593 -1.26223926 25.92337388 -1.2784729 29.13763428 C-1.28963638 30.39684189 -1.30079987 31.6560495 -1.31230164 32.95341492 C-1.31466652 34.34622163 -1.31684218 35.73902867 -1.31884766 37.13183594 C-1.32814709 38.60039319 -1.33831579 40.06894515 -1.34928894 41.53749084 C-1.37660136 45.52265286 -1.39174201 49.5077795 -1.40471697 53.49301052 C-1.42034208 57.65840655 -1.44713427 61.82373028 -1.4727478 65.98907471 C-1.51954657 73.87605024 -1.55628536 81.76303935 -1.58942068 89.65008283 C-1.6276343 98.62949316 -1.67704645 107.60883091 -1.72740483 116.58818007 C-1.83074102 135.05873359 -1.91999594 153.52933142 -2 172 C-2.33 172 -2.66 172 -3 172 C-3.07025325 151.64117209 -3.12306783 131.28236897 -3.15543652 110.92344475 C-3.17086903 101.46926686 -3.19188896 92.01516453 -3.22631836 82.56103516 C-3.25633191 74.31550484 -3.27560125 66.07002928 -3.28226548 57.82444584 C-3.28615759 53.46328709 -3.29522816 49.10228491 -3.31719017 44.74117661 C-3.33774479 40.62570536 -3.34379602 36.51045331 -3.33932304 32.39493561 C-3.34013985 30.89467548 -3.34599149 29.39440705 -3.35761642 27.89419174 C-3.42905613 18.18830447 -2.42876085 9.41201139 0 0 Z " fill="#343C4F" transform="translate(85,157)"/>
<path d="M0 0 C0 3 0 3 -2 6 C-2.66 5.67 -3.32 5.34 -4 5 C-3.67 6.32 -3.34 7.64 -3 9 C-3.639375 9.4125 -4.27875 9.825 -4.9375 10.25 C-7.1636248 11.77550917 -7.1636248 11.77550917 -7.41015625 13.96875 C-8 16 -8 16 -9.59375 17.203125 C-10.2228125 17.54859375 -10.851875 17.8940625 -11.5 18.25 C-13.80160944 19.75145892 -14.82262886 20.455724 -15.68359375 23.09765625 C-16.00120979 25.55166702 -16.00120979 25.55166702 -16 29 C-16.66 28.67 -17.32 28.34 -18 28 C-18.66 28.33 -19.32 28.66 -20 29 C-20.65772428 32.02934491 -20.65772428 32.02934491 -21 35 C-21.66 35 -22.32 35 -23 35 C-23 36.32 -23 37.64 -23 39 C-23.66 39 -24.32 39 -25 39 C-23.12207469 29.78109395 -18.72561504 22.05104785 -14 14 C-13.34 14 -12.68 14 -12 14 C-11.61134766 13.13761719 -11.61134766 13.13761719 -11.21484375 12.2578125 C-9.90115939 9.81630266 -8.39702947 7.95018817 -6.5625 5.875 C-5.96566406 5.19179687 -5.36882812 4.50859375 -4.75390625 3.8046875 C-3 2 -3 2 0 0 Z " fill="#3F4F63" transform="translate(111,118)"/>
<path d="M0 0 C0 0.33 0 0.66 0 1 C-4.81812076 1.91773729 -9.21475198 1.93568165 -14.125 1.75 C-19.72241698 1.53023969 -19.72241698 1.53023969 -24.3125 4.25 C-25.76266681 6.6132348 -26.6959157 8.26324131 -27 11 C-27.86625 11.12375 -27.86625 11.12375 -28.75 11.25 C-31.60798931 12.2026631 -32.92954588 13.86053074 -35 16 C-35.66 16 -36.32 16 -37 16 C-36.34 14.02 -35.68 12.04 -35 10 C-34.34 10 -33.68 10 -33 10 C-32.773125 9.4225 -32.54625 8.845 -32.3125 8.25 C-25.86470842 -2.80335699 -10.81886156 -3.60628719 0 0 Z " fill="#4F5D6E" transform="translate(201,212)"/>
<path d="M0 0 C1 2 1 2 0.1875 4.875 C-0.204375 5.90625 -0.59625 6.9375 -1 8 C-1.268125 8.721875 -1.53625 9.44375 -1.8125 10.1875 C-3.42599902 12.65020903 -5.42839224 13.64652223 -8 15 C-7.360625 15.680625 -6.72125 16.36125 -6.0625 17.0625 C-3.6741507 20.46408839 -3.32122847 22.90433701 -3 27 C-9.63157895 20.55263158 -9.63157895 20.55263158 -12 17 C-11.73329086 12.95634525 -9.24259512 10.7805449 -6.5625 7.9375 C-4.12788624 5.33875498 -1.97804974 2.96707461 0 0 Z " fill="#49576A" transform="translate(234,306)"/>
<path d="M0 0 C2.35546875 0.74609375 2.35546875 0.74609375 5 2 C11.36177546 4.51998579 17.15343858 6.48327838 24 7 C24 7.33 24 7.66 24 8 C22.25360243 8.39143394 20.50264082 8.76254287 18.75 9.125 C17.77546875 9.33382813 16.8009375 9.54265625 15.796875 9.7578125 C12.69894257 10.02606922 11.62736953 9.51579011 9 8 C8.01 8 7.02 8 6 8 C6.33 6.68 6.66 5.36 7 4 C6.0925 4.04125 5.185 4.0825 4.25 4.125 C1.1217954 4.00468444 -0.38614006 3.6085292 -3 2 C-2.01 1.34 -1.02 0.68 0 0 Z " fill="#3E4D63" transform="translate(163,325)"/>
<path d="M0 0 C2.87798491 3.25542555 3.54805094 5.85557697 4.125 10.125 C4.61383281 14.20171922 4.61383281 14.20171922 6 18 C5.67 18.99 5.34 19.98 5 21 C5.99 21 6.98 21 8 21 C10 24 10 24 9.625 26.6875 C9.41875 27.450625 9.2125 28.21375 9 29 C2.03994354 20.99593507 -0.36835178 10.31384973 0 0 Z " fill="#4C586A" transform="translate(156,264)"/>
<path d="M0 0 C-1.89172763 2.41720753 -2.95855875 2.98963969 -6 3.75 C-9 4 -9 4 -12 3 C-12.33 3.99 -12.66 4.98 -13 6 C-14.5778125 6.0928125 -14.5778125 6.0928125 -16.1875 6.1875 C-20.69450825 7.14800996 -21.86138604 8.77879093 -25 12 C-27.8125 12.3125 -27.8125 12.3125 -30 12 C-24.62588466 6.2609756 -17.42100916 3.61490789 -10.125 1.125 C-9.47047852 0.8976416 -8.81595703 0.6702832 -8.14160156 0.43603516 C-3.37037139 -1.12345713 -3.37037139 -1.12345713 0 0 Z " fill="#505D6F" transform="translate(146,103)"/>
<path d="M0 0 C0.33 0 0.66 0 1 0 C1.02715383 1.74991334 1.04646551 3.49994945 1.0625 5.25 C1.07410156 6.22453125 1.08570312 7.1990625 1.09765625 8.203125 C1.01160865 10.66752834 0.61717812 12.63589397 0 15 C0.185625 15.66 0.37125 16.32 0.5625 17 C1 19 1 19 0.06640625 20.734375 C-1.28834961 23.61261089 -1.4185592 26.08457434 -1.625 29.25 C-1.69976562 30.32765625 -1.77453125 31.4053125 -1.8515625 32.515625 C-1.92503906 33.74539062 -1.92503906 33.74539062 -2 35 C-2.33 35 -2.66 35 -3 35 C-3.33768469 22.90222955 -3.31358755 11.73562257 0 0 Z " fill="#445266" transform="translate(85,157)"/>
<path d="M0 0 C2.85793316 2.85793316 2.40799941 5.14665584 2.625 9.125 C2.69976562 10.40632812 2.77453125 11.68765625 2.8515625 13.0078125 C2.92503906 14.48894531 2.92503906 14.48894531 3 16 C3.33 16 3.66 16 4 16 C4 20.95 4 25.9 4 31 C3.01 31 2.02 31 1 31 C0.67 20.77 0.34 10.54 0 0 Z " fill="#364E7E" transform="translate(330,217)"/>
<path d="M0 0 C0.33 0 0.66 0 1 0 C1.02505615 0.7113208 1.0501123 1.4226416 1.07592773 2.15551758 C1.19188439 5.37469517 1.31461245 8.59357985 1.4375 11.8125 C1.47681641 12.93205078 1.51613281 14.05160156 1.55664062 15.20507812 C1.59853516 16.27822266 1.64042969 17.35136719 1.68359375 18.45703125 C1.72025146 19.44678955 1.75690918 20.43654785 1.79467773 21.45629883 C1.90790331 24.1218351 1.90790331 24.1218351 3 27 C1.92745123 29.51698632 0.45196548 31.66805545 -1 34 C-1.68721659 31.86199283 -2.11402194 30.44330256 -1.54711914 28.23925781 C-0.86363414 25.44187967 -0.78234686 22.79982269 -0.68359375 19.921875 C-0.64169922 18.76171875 -0.59980469 17.6015625 -0.55664062 16.40625 C-0.51732422 15.1996875 -0.47800781 13.993125 -0.4375 12.75 C-0.39431641 11.52796875 -0.35113281 10.3059375 -0.30664062 9.046875 C-0.20062645 6.0313608 -0.09856064 3.01576552 0 0 Z " fill="#8791A0" transform="translate(246,249)"/>
<path d="M0 0 C0 0.33 0 0.66 0 1 C-5.20173095 1.86809439 -10.16978816 2.12515348 -15.4375 2.0625 C-16.16904297 2.05798828 -16.90058594 2.05347656 -17.65429688 2.04882812 C-19.43623419 2.03718148 -21.21812863 2.01925191 -23 2 C-22 0 -22 0 -18.9375 -1.125 C-12.22706009 -2.85407041 -6.50515294 -2.16838431 0 0 Z " fill="#62717D" transform="translate(201,212)"/>
<path d="M0 0 C0.99 0.495 0.99 0.495 2 1 C1.979375 2.134375 1.95875 3.26875 1.9375 4.4375 C1.58422523 7.81575674 1.58422523 7.81575674 3 9 C2.96196091 11.31453234 2.84459346 13.6279917 2.6875 15.9375 C2.60886719 17.20464844 2.53023437 18.47179687 2.44921875 19.77734375 C2 23 2 23 0 25 C0 16.75 0 8.5 0 0 Z " fill="#1E2E43" transform="translate(247,249)"/>
<path d="M0 0 C0.99 0 1.98 0 3 0 C3 0.99 3 1.98 3 3 C3.639375 3.5775 4.27875 4.155 4.9375 4.75 C7.65052623 7.70966498 7.69808303 10.07507941 8 14 C1.36842105 7.55263158 1.36842105 7.55263158 -1 4 C-0.75 1.6875 -0.75 1.6875 0 0 Z " fill="#414D5F" transform="translate(223,319)"/>
<path d="M0 0 C1.46953125 0.08217773 1.46953125 0.08217773 2.96875 0.16601562 C3.98453125 0.23884766 5.0003125 0.31167969 6.046875 0.38671875 C7.078125 0.44794922 8.109375 0.50917969 9.171875 0.57226562 C11.71478528 0.72531115 14.25583364 0.89312357 16.796875 1.07421875 C17.126875 1.73421875 17.456875 2.39421875 17.796875 3.07421875 C16.76949219 3.05101562 15.74210937 3.0278125 14.68359375 3.00390625 C6.48272628 2.87700695 -1.17049076 3.16816995 -9.203125 5.07421875 C-9.203125 4.41421875 -9.203125 3.75421875 -9.203125 3.07421875 C-6.16801135 0.13776842 -4.14519224 -0.2650995 0 0 Z " fill="#626E80" transform="translate(182.203125,183.92578125)"/>
<path d="M0 0 C3.77332273 -0.47579551 7.24933112 -0.7164199 11 0 C13.42975739 2.34739273 14.74205155 4.88640384 16 8 C14.02 8.33 12.04 8.66 10 9 C8.875 7.25 8.875 7.25 8 5 C8.66 3.68 9.32 2.36 10 1 C6.7 1 3.4 1 0 1 C0 0.67 0 0.34 0 0 Z " fill="#4A5D6C" transform="translate(193,332)"/>
<path d="M0 0 C6.16618181 -0.40214229 11.17745757 1.03181664 17 3 C16.01 3.33 15.02 3.66 14 4 C13.67 4.99 13.34 5.98 13 7 C8.125 5.25 8.125 5.25 7 3 C4.6859378 2.26924352 2.35171131 1.59861742 0 1 C0 0.67 0 0.34 0 0 Z " fill="#516072" transform="translate(336,102)"/>
<path d="M0 0 C1.32 0.33 2.64 0.66 4 1 C4 1.66 4 2.32 4 3 C4.66 3 5.32 3 6 3 C6.103125 3.763125 6.20625 4.52625 6.3125 5.3125 C7.04364039 8.17059424 7.76951913 9.15742885 10 11 C9.34 12.32 8.68 13.64 8 15 C5 10.25 5 10.25 5 8 C4.34 8 3.68 8 3 8 C2.01 5.36 1.02 2.72 0 0 Z " fill="#34475A" transform="translate(90,354)"/>
<path d="M0 0 C0.65355469 0.56267578 0.65355469 0.56267578 1.3203125 1.13671875 C5.18607599 4.45859777 9.07657648 7.74642927 13 11 C10 12 10 12 8 12 C7.34 11.01 6.68 10.02 6 9 C3.43324403 6.30161552 1.10451137 4.06967424 -2 2 C-1.34 2 -0.68 2 0 2 C0 1.34 0 0.68 0 0 Z " fill="#4C5A6B" transform="translate(150,313)"/>
<path d="M0 0 C2.5 2.3125 2.5 2.3125 5 5 C5 5.99 5 6.98 5 8 C4.360625 7.731875 3.72125 7.46375 3.0625 7.1875 C-0.91202261 5.64635858 -4.94884495 4.32390688 -9 3 C-5.98968256 2.06576355 -5.13349732 1.95550089 -2 3 C-2 2.34 -2 1.68 -2 1 C-1.34 0.67 -0.68 0.34 0 0 Z " fill="#4D5E71" transform="translate(211,185)"/>
<path d="M0 0 C6.875 2.75 6.875 2.75 8 5 C0.08 4.34 -7.84 3.68 -16 3 C-16 2.67 -16 2.34 -16 2 C-14.08416353 1.8041991 -12.16727461 1.61867786 -10.25 1.4375 C-8.64898437 1.28087891 -8.64898437 1.28087891 -7.015625 1.12109375 C-4.35858796 1.01439926 -2.50039428 1.18069605 0 2 C0 1.34 0 0.68 0 0 Z " fill="#5B6676" transform="translate(257,146)"/>
<path d="M0 0 C0.99 0.33 1.98 0.66 3 1 C2.01 1.495 2.01 1.495 1 2 C1 2.66 1 3.32 1 4 C-0.73548169 5.44526736 -2.53975963 6.8087222 -4.375 8.125 C-5.37273437 8.84945313 -6.37046875 9.57390625 -7.3984375 10.3203125 C-10 12 -10 12 -12 12 C-12 11.01 -12 10.02 -12 9 C-10.68 9 -9.36 9 -8 9 C-8 8.34 -8 7.68 -8 7 C-7.01 7 -6.02 7 -5 7 C-5 6.34 -5 5.68 -5 5 C-4.34 5 -3.68 5 -3 5 C-2.690625 4.360625 -2.38125 3.72125 -2.0625 3.0625 C-1 1 -1 1 0 0 Z " fill="#5F6979" transform="translate(376,377)"/>
<path d="M0 0 C0.33 0.66 0.66 1.32 1 2 C1.99 2.33 2.98 2.66 4 3 C5.1875 5.5625 5.1875 5.5625 6 8 C1.94718288 6.77472971 -1.44360764 5.30119506 -5 3 C-4.360625 2.690625 -3.72125 2.38125 -3.0625 2.0625 C-1.06389179 1.1654837 -1.06389179 1.1654837 0 0 Z " fill="#3A4964" transform="translate(124,385)"/>
<path d="M0 0 C3.63 0.66 7.26 1.32 11 2 C11 2.99 11 3.98 11 5 C8.89521396 4.88590318 6.79115423 4.75834639 4.6875 4.625 C3.51574219 4.55539062 2.34398437 4.48578125 1.13671875 4.4140625 C-2 4 -2 4 -5 2 C-3.35 2 -1.7 2 0 2 C0 1.34 0 0.68 0 0 Z " fill="#535F74" transform="translate(144,394)"/>
<path d="M0 0 C0.66 0 1.32 0 2 0 C3.5078125 1.75 3.5078125 1.75 5.125 4 C5.66382813 4.7425 6.20265625 5.485 6.7578125 6.25 C7.16773438 6.8275 7.57765625 7.405 8 8 C6.02 8.99 6.02 8.99 4 10 C2 8 2 8 1.875 5.375 C1.91625 4.59125 1.9575 3.8075 2 3 C1.34 3 0.68 3 0 3 C0 2.01 0 1.02 0 0 Z " fill="#445365" transform="translate(209,341)"/>
<path d="M0 0 C1.0625 1.8125 1.0625 1.8125 2 4 C1.1654738 6.50357861 0.20628008 8.66785852 -1 11 C-1.99 11 -2.98 11 -4 11 C-4 8.69 -4 6.38 -4 4 C-2.68 3.67 -1.36 3.34 0 3 C0 2.01 0 1.02 0 0 Z " fill="#2D3F5B" transform="translate(221,238)"/>
<path d="M0 0 C1.28497537 3.85492611 0.4052209 5.40346836 -0.9375 9.1875 C-1.31777344 10.27417969 -1.69804687 11.36085938 -2.08984375 12.48046875 C-2.39019531 13.31191406 -2.69054687 14.14335937 -3 15 C-4.0625 13.1875 -4.0625 13.1875 -5 11 C-4.67 10.01 -4.34 9.02 -4 8 C-3.34 8 -2.68 8 -2 8 C-2.04125 7.236875 -2.0825 6.47375 -2.125 5.6875 C-2 3 -2 3 0 0 Z " fill="#5D6676" transform="translate(222,273)"/>
<path d="M0 0 C1.60568666 0.28317926 3.20952047 0.57687791 4.8125 0.875 C6.15248047 1.11863281 6.15248047 1.11863281 7.51953125 1.3671875 C10 2 10 2 13 4 C10.69 4.66 8.38 5.32 6 6 C5.34 5.34 4.68 4.68 4 4 C4.33 3.34 4.66 2.68 5 2 C4.01 2.33 3.02 2.66 2 3 C1.34 2.01 0.68 1.02 0 0 Z " fill="#5B6574" transform="translate(258,168)"/>
<path d="M0 0 C-2.32134731 2.75891757 -3.86681231 3.43688742 -7.4375 3.75 C-8.19933594 3.82734375 -8.96117187 3.9046875 -9.74609375 3.984375 C-12.01666179 4.00011551 -13.8338125 3.65133656 -16 3 C-13.89936424 2.30178583 -11.79434263 1.61675528 -9.6875 0.9375 C-8.51574219 0.55464844 -7.34398437 0.17179687 -6.13671875 -0.22265625 C-3 -1 -3 -1 0 0 Z " fill="#697383" transform="translate(146,103)"/>
<path d="M0 0 C0.99 0.33 1.98 0.66 3 1 C2.67 1.66 2.34 2.32 2 3 C1.34 3 0.68 3 0 3 C-0.433125 3.928125 -0.433125 3.928125 -0.875 4.875 C-2 7 -2 7 -4 9 C-4.66 7.68 -5.32 6.36 -6 5 C-1.60546875 0.99609375 -1.60546875 0.99609375 0 0 Z " fill="#435064" transform="translate(151,201)"/>
<path d="M0 0 C0.66 0.99 1.32 1.98 2 3 C1.34 3 0.68 3 0 3 C0 3.99 0 4.98 0 6 C-2.64458379 7.32229189 -4.67761301 7.09677194 -7.625 7.0625 C-8.62789062 7.05347656 -9.63078125 7.04445313 -10.6640625 7.03515625 C-11.43492187 7.02355469 -12.20578125 7.01195312 -13 7 C-13 6.67 -13 6.34 -13 6 C-11.96939453 5.85304688 -11.96939453 5.85304688 -10.91796875 5.703125 C-10.01691406 5.55359375 -9.11585938 5.4040625 -8.1875 5.25 C-7.29417969 5.11078125 -6.40085938 4.9715625 -5.48046875 4.828125 C-2.49427342 3.831159 -1.61619656 2.6417565 0 0 Z " fill="#5D6C7B" transform="translate(231,343)"/>
<path d="M0 0 C1.65 0 3.3 0 5 0 C1.50912907 4.0042343 -0.64951939 5.62671065 -6 6 C-6 5.01 -6 4.02 -6 3 C-3.525 3.495 -3.525 3.495 -1 4 C-0.67 2.68 -0.34 1.36 0 0 Z " fill="#556474" transform="translate(204,300)"/>
<path d="M0 0 C1.60080151 4.00200378 0.29279692 7.04556236 -1 11 C-1.66 11 -2.32 11 -3 11 C-3 12.32 -3 13.64 -3 15 C-3.66 15 -4.32 15 -5 15 C-3.78623966 9.67812773 -2.27376292 4.96093728 0 0 Z " fill="#737E89" transform="translate(91,142)"/>
<path d="M0 0 C3.53372712 1.96318174 6.24479785 4.04070881 9 7 C8.67 7.66 8.34 8.32 8 9 C6.68 8.67 5.36 8.34 4 8 C3.67 6.68 3.34 5.36 3 4 C2.01 4 1.02 4 0 4 C0 2.68 0 1.36 0 0 Z " fill="#667083" transform="translate(205,215)"/>
<path d="M0 0 C0.33 0 0.66 0 1 0 C1.82351864 6.38226945 2.12086218 12.56744599 2 19 C1.67 19 1.34 19 1 19 C-0.93833398 12.36801431 -1.05268874 6.81402575 0 0 Z " fill="#616D7A" transform="translate(132,253)"/>
<path d="M0 0 C1 2 1 2 0.0625 5.125 C-0.288125 6.07375 -0.63875 7.0225 -1 8 C-2.32 8 -3.64 8 -5 8 C-5 8.99 -5 9.98 -5 11 C-5.66 11 -6.32 11 -7 11 C-6.67 9.68 -6.34 8.36 -6 7 C-5.34 7 -4.68 7 -4 7 C-3.71125 6.401875 -3.4225 5.80375 -3.125 5.1875 C-2 3 -2 3 0 0 Z " fill="#657482" transform="translate(103,125)"/>
<path d="M0 0 C0.99 0.33 1.98 0.66 3 1 C2.67 3.64 2.34 6.28 2 9 C1.34 9 0.68 9 0 9 C-1.125 3.375 -1.125 3.375 0 0 Z " fill="#16283E" transform="translate(132,233)"/>
<path d="M0 0 C1.32 0.33 2.64 0.66 4 1 C2.7508258 4.45925163 1.32472205 7.14693203 -1 10 C-1.33 8.35 -1.66 6.7 -2 5 C-1.01 5 -0.02 5 1 5 C0.67 3.35 0.34 1.7 0 0 Z " fill="#445168" transform="translate(142,210)"/>
<path d="M0 0 C1.90318884 2.85478326 2.4619099 4.41941308 3.125 7.6875 C3.29257812 8.49574219 3.46015625 9.30398437 3.6328125 10.13671875 C3.75398438 10.75160156 3.87515625 11.36648437 4 12 C3.67 11.34 3.34 10.68 3 10 C2.01 9.67 1.02 9.34 0 9 C-1.37001429 5.8033 -0.8252404 3.30096158 0 0 Z " fill="#667585" transform="translate(397,149)"/>
<path d="M0 0 C1.98 0 3.96 0 6 0 C5.01 0.495 5.01 0.495 4 1 C4 1.66 4 2.32 4 3 C5.32 2.67 6.64 2.34 8 2 C8.33 3.32 8.66 4.64 9 6 C4.64464931 4.83857315 2.35380297 3.92300495 0 0 Z " fill="#525F72" transform="translate(170,299)"/>
<path d="M0 0 C2.6855594 2.6855594 3.06049974 5.37621328 4 9 C3.01 8.67 2.02 8.34 1 8 C1 7.34 1 6.68 1 6 C0.34 6 -0.32 6 -1 6 C-1.042721 4.33388095 -1.04063832 2.66617115 -1 1 C-0.67 0.67 -0.34 0.34 0 0 Z " fill="#4D5668" transform="translate(138,291)"/>
<path d="M0 0 C0.99 0.33 1.98 0.66 3 1 C3 2.98 3 4.96 3 7 C3.66 7.33 4.32 7.66 5 8 C4.67 9.65 4.34 11.3 4 13 C2.42445965 10.11371599 1.53723627 7.46657616 0.875 4.25 C0.70742188 3.45078125 0.53984375 2.6515625 0.3671875 1.828125 C0.24601562 1.22484375 0.12484375 0.6215625 0 0 Z " fill="#586374" transform="translate(326,204)"/>
<path d="M0 0 C2.50037734 2.17424117 3.43628586 3.73045798 4 7 C2.68 7.33 1.36 7.66 0 8 C-0.79953138 4.71303767 -1.09658936 3.28976808 0 0 Z " fill="#505E71" transform="translate(388,133)"/>
<path d="M0 0 C1.32 0 2.64 0 4 0 C3.01 2.97 2.02 5.94 1 9 C0.67 9 0.34 9 0 9 C0 6.03 0 3.06 0 0 Z " fill="#4D5A6E" transform="translate(395,346)"/>
<path d="M0 0 C0.33 0.99 0.66 1.98 1 3 C-0.28965176 4.37562854 -1.62689293 5.70766393 -3 7 C-3.66 7 -4.32 7 -5 7 C-4.1875 4.0625 -4.1875 4.0625 -3 1 C-2.01 0.67 -1.02 0.34 0 0 Z " fill="#415061" transform="translate(169,221)"/>
<path d="M0 0 C3.63 0.33 7.26 0.66 11 1 C11 1.66 11 2.32 11 3 C9.0625 3.5625 9.0625 3.5625 7 4 C6.67 3.67 6.34 3.34 6 3 C4.00041636 2.95919217 1.99954746 2.95745644 0 3 C0 2.01 0 1.02 0 0 Z " fill="#1A2B3E" transform="translate(216,349)"/>
<path d="M0 0 C2.27183419 2.46115371 2.9736202 3.73620199 3.3125 7.125 C3 10 3 10 1 12 C-0.3271261 8.0186217 -0.06915913 4.14954773 0 0 Z " fill="#596777" transform="translate(156,264)"/>
<path d="M0 0 C0.99 0.495 0.99 0.495 2 1 C2 1.66 2 2.32 2 3 C2.66 3.33 3.32 3.66 4 4 C3.67 4.99 3.34 5.98 3 7 C3.66 7 4.32 7 5 7 C4.67 8.65 4.34 10.3 4 12 C2.09681116 9.14521674 1.5380901 7.58058692 0.875 4.3125 C0.70742187 3.50425781 0.53984375 2.69601563 0.3671875 1.86328125 C0.24601563 1.24839844 0.12484375 0.63351563 0 0 Z " fill="#616C7C" transform="translate(240,223)"/>
<path d="M0 0 C0.66 0 1.32 0 2 0 C2 1.65 2 3.3 2 5 C2.66 5 3.32 5 4 5 C3.67 6.65 3.34 8.3 3 10 C0.70366176 6.55549263 0.45983515 4.06187717 0 0 Z " fill="#49596A" transform="translate(322,192)"/>
<path d="M0 0 C3.65316671 1.24976756 4.78065836 1.67098753 7 5 C4.6875 5.25 4.6875 5.25 2 5 C0.1875 3 0.1875 3 -1 1 C-0.67 0.67 -0.34 0.34 0 0 Z " fill="#505D73" transform="translate(368,114)"/>
<path d="M0 0 C2.9375 1.3125 2.9375 1.3125 6 3 C6.33 3.99 6.66 4.98 7 6 C6.01 7.485 6.01 7.485 5 9 C2 4.25 2 4.25 2 2 C1.34 2 0.68 2 0 2 C0 1.34 0 0.68 0 0 Z " fill="#6B7582" transform="translate(93,360)"/>
<path d="M0 0 C0.66 0.99 1.32 1.98 2 3 C0.25 6.875 0.25 6.875 -2 8 C-2.66 7.34 -3.32 6.68 -4 6 C-3.525625 5.566875 -3.05125 5.13375 -2.5625 4.6875 C-0.76313043 2.97690387 -0.76313043 2.97690387 0 0 Z " fill="#4A5970" transform="translate(331,325)"/>
<path d="M0 0 C0.33 0 0.66 0 1 0 C0.67 4.29 0.34 8.58 0 13 C-0.33 13 -0.66 13 -1 13 C-2 5.375 -2 5.375 -2 2 C-1.34 2.33 -0.68 2.66 0 3 C0 2.01 0 1.02 0 0 Z " fill="#788494" transform="translate(134,239)"/>
<path d="M0 0 C2.79872437 2.52788007 4.45773019 4.20411134 5 8 C3.68 8 2.36 8 1 8 C0.67 5.36 0.34 2.72 0 0 Z " fill="#4E5B6C" transform="translate(298,193)"/>
<path d="M0 0 C1.35015859 4.05047576 0.62084998 6.7920168 0 11 C-2 10 -2 10 -2.8125 7.75 C-3.04981941 4.2693153 -1.99176373 2.78846922 0 0 Z " fill="#3D4C5F" transform="translate(95,136)"/>
<path d="M0 0 C2.97 0 5.94 0 9 0 C9 0.99 9 1.98 9 3 C5.26512223 2.5020163 3.18762365 2.12508244 0 0 Z " fill="#525D6F" transform="translate(130,393)"/>
<path d="M0 0 C1.65 0 3.3 0 5 0 C6.125 3.75 6.125 3.75 5 6 C3.35 4.02 1.7 2.04 0 0 Z " fill="#70798A" transform="translate(101,372)"/>
<path d="M0 0 C0.99 1.32 1.98 2.64 3 4 C2.01 5.32 1.02 6.64 0 8 C-0.79953138 4.71303767 -1.09658936 3.28976808 0 0 Z " fill="#414D62" transform="translate(159,236)"/>
<path d="M0 0 C1.32 0 2.64 0 4 0 C4 0.66 4 1.32 4 2 C1.5 3.625 1.5 3.625 -1 5 C-1.33 4.01 -1.66 3.02 -2 2 C-1.34 1.34 -0.68 0.68 0 0 Z " fill="#405466" transform="translate(175,214)"/>
</svg>
